# xmcd
#
# Track frame offsets: 
#        150
#        18280
#        38530
#        57628
#        75545
#        94826
#        110276
#        127300
#        152227
#        170057
#
# Disc length: 2519 seconds
#
# Revision: 0
# Processed by: cddbd v1.5.2PL0 Copyright (c) Steve Scherf et al.
# Submitted via: ExactAudioCopy v0.95b4
#
DISCID=7f09d50a
DTITLE=ปอยฝ้าย มาลัยพร - ข่าวล่ามาแรง
DYEAR=2006
DGENRE=Country
TTITLE0=ข่าวล่ามาแรง
TTITLE1=ฝากลมบอกสาว
TTITLE2=ถอนคำสาบาน
TTITLE3=น้ำปล่าบ่มียี่ห้อ
TTITLE4=ซังหมูพ่อพันธุ์
TTITLE5=โซ่ตรวนใจ
TTITLE6=ลืมใจไว้บุรีรัมย์
TTITLE7=คอยฮักนักศึกษา
TTITLE8=เว้าฟื้นเจ้าของ
TTITLE9=หมากเตะสาวตะลึง
EXTD=
EXTT0=
EXTT1=
EXTT2=
EXTT3=
EXTT4=
EXTT5=
EXTT6=
EXTT7=
EXTT8=
EXTT9=
PLAYORDER=
